<?xml version="1.0" encoding="UTF-8"?>
<svg id="Layer_2" data-name="Layer 2" xmlns="http://www.w3.org/2000/svg" viewBox="0 0 456.44 446.05">
  <defs>
    <style>
      .cls-1 {
        fill: none;
        stroke: #231f20;
        stroke-miterlimit: 10;
      }

      .cls-2 {
        fill: #231f20;
      }
    </style>
  </defs>
  <g id="Layer_1-2" data-name="Layer 1">
    <g>
      <path class="cls-2" d="M455.94,223.02c0,16.66-21.62,30.66-25.16,46.24-3.66,16.09,9.66,38.07,2.66,52.59-7.12,14.76-32.68,18-42.8,30.68-10.17,12.74-7.69,38.36-20.43,48.53s-37.09,2.04-51.85,9.16c-14.52,7-23.37,31.2-39.46,34.86-15.58,3.54-34.02-14.34-50.68-14.34s-35.09,17.88-50.68,14.34c-16.09-3.66-24.94-27.86-39.46-34.86-14.76-7.12-39.17.97-51.85-9.16-12.74-10.17-10.25-35.8-20.43-48.53-10.12-12.68-35.68-15.92-42.8-30.68s6.31-36.49,2.66-52.59S.5,239.68.5,223.02s21.62-30.66,25.16-46.24-9.66-38.07-2.66-52.59,32.68-18,42.8-30.68,7.69-38.36,20.43-48.53c12.68-10.12,37.09-2.04,51.85-9.16,14.52-7,23.37-31.2,39.46-34.86s34.02,14.34,50.68,14.34S263.31-2.58,278.9.96s24.94,27.86,39.46,34.86c14.76,7.12,39.17-.97,51.85,9.16,12.74,10.17,10.25,35.8,20.43,48.53,10.12,12.68,35.68,15.92,42.8,30.68,7,14.52-6.31,36.49-2.66,52.59s25.16,29.59,25.16,46.24Z"/>
      <path class="cls-1" d="M455.94,223.02c0,16.66-21.62,30.66-25.16,46.24-3.66,16.09,9.66,38.07,2.66,52.59-7.12,14.76-32.68,18-42.8,30.68-10.17,12.74-7.69,38.36-20.43,48.53s-37.09,2.04-51.85,9.16c-14.52,7-23.37,31.2-39.46,34.86-15.58,3.54-34.02-14.34-50.68-14.34s-35.09,17.88-50.68,14.34c-16.09-3.66-24.94-27.86-39.46-34.86-14.76-7.12-39.17.97-51.85-9.16-12.74-10.17-10.25-35.8-20.43-48.53-10.12-12.68-35.68-15.92-42.8-30.68s6.31-36.49,2.66-52.59S.5,239.68.5,223.02s21.62-30.66,25.16-46.24-9.66-38.07-2.66-52.59,32.68-18,42.8-30.68,7.69-38.36,20.43-48.53c12.68-10.12,37.09-2.04,51.85-9.16,14.52-7,23.37-31.2,39.46-34.86s34.02,14.34,50.68,14.34S263.31-2.58,278.9.96s24.94,27.86,39.46,34.86c14.76,7.12,39.17-.97,51.85,9.16,12.74,10.17,10.25,35.8,20.43,48.53,10.12,12.68,35.68,15.92,42.8,30.68,7,14.52-6.31,36.49-2.66,52.59s25.16,29.59,25.16,46.24Z"/>
    </g>
  </g>
</svg>