<?xml version="1.0" encoding="UTF-8" standalone="no"?>
<svg
   width="256"
   height="256"
   viewBox="0 0 24 24"
   version="1.1"
   id="svg3"
   sodipodi:docname="home fill.svg"
   inkscape:version="1.4.2 (ebf0e940, 2025-05-08)"
   xmlns:inkscape="http://www.inkscape.org/namespaces/inkscape"
   xmlns:sodipodi="http://sodipodi.sourceforge.net/DTD/sodipodi-0.dtd"
   xmlns="http://www.w3.org/2000/svg"
   xmlns:svg="http://www.w3.org/2000/svg">
  <defs
     id="defs3" />
  <sodipodi:namedview
     id="namedview3"
     pagecolor="#505050"
     bordercolor="#ffffff"
     borderopacity="1"
     inkscape:showpageshadow="0"
     inkscape:pageopacity="0"
     inkscape:pagecheckerboard="1"
     inkscape:deskcolor="#505050"
     inkscape:zoom="1.625"
     inkscape:cx="126.76923"
     inkscape:cy="111.38462"
     inkscape:window-width="1512"
     inkscape:window-height="945"
     inkscape:window-x="0"
     inkscape:window-y="37"
     inkscape:window-maximized="0"
     inkscape:current-layer="svg3" />
  <rect
     x="0"
     y="0"
     width="24"
     height="24"
     rx="8"
     fill="none"
     id="rect1" />
  <svg
     viewBox="0 0 24 24"
     fill="#000000"
     x="0"
     y="0"
     width="24"
     height="24"
     version="1.1"
     id="svg2">
    <g
       fill="none"
       fill-rule="evenodd"
       id="g2">
      <path
         d="M24 0v24H0V0zM12.594 23.258l-.012.002l-.071.035l-.02.004l-.014-.004l-.071-.036c-.01-.003-.019 0-.024.006l-.004.01l-.017.428l.005.02l.01.013l.104.074l.015.004l.012-.004l.104-.074l.012-.016l.004-.017l-.017-.427c-.002-.01-.009-.017-.016-.018m.264-.113l-.014.002l-.184.093l-.01.01l-.003.011l.018.43l.005.012l.008.008l.201.092c.012.004.023 0 .029-.008l.004-.014l-.034-.614c-.003-.012-.01-.02-.02-.022m-.715.002a.023.023 0 0 0-.027.006l-.006.014l-.034.614c0 .012.007.02.017.024l.015-.002l.201-.093l.01-.008l.003-.011l.018-.43l-.003-.012l-.01-.01z"
         id="path1" />
      <path
         fill="#000000"
         d="M10.671 2.843a2 2 0 0 1 2.658 0l3.934 3.497l.25-1.504a1 1 0 1 1 1.973.328L19.03 7.91l2.635 2.343a1 1 0 0 1-1.328 1.494l-.464-.412l-.787 7.864A2 2 0 0 1 17.095 21H6.905a2 2 0 0 1-1.99-1.801l-.786-7.864l-.465.412a1 1 0 0 1-1.328-1.494z"
         id="path2"
         style="fill:#89b3d9;fill-opacity:1" />
    </g>
  </svg>
</svg>
