<?xml version="1.0" encoding="UTF-8"?>
<svg id="Layer_2" data-name="Layer 2" xmlns="http://www.w3.org/2000/svg" xmlns:xlink="http://www.w3.org/1999/xlink" viewBox="0 0 1052.89 770.27">
  <defs>
    <style>
      .cls-1 {
        fill: url(#linear-gradient);
        stroke-width: 0px;
      }
    </style>
    <linearGradient id="linear-gradient" x1="147.75" y1="902.77" x2="801.97" y2="-372.87" gradientUnits="userSpaceOnUse">
      <stop offset="0" stop-color="#2582c5"/>
      <stop offset=".07" stop-color="#3a8eca"/>
      <stop offset=".33" stop-color="#7fb6dd"/>
      <stop offset=".55" stop-color="#b6d5eb"/>
      <stop offset=".75" stop-color="#ddecf6"/>
      <stop offset=".9" stop-color="#f6f9fc"/>
      <stop offset="1" stop-color="#fff"/>
    </linearGradient>
  </defs>
  <g id="Layer_1-2" data-name="Layer 1">
    <path class="cls-1" d="M696.95,163.45c-76.06,11.68-161.32,39.61-245.88,83.63-217.9,113.41-348.4,290.11-291.48,394.72,2,3.67,4.18,7.17,6.56,10.55-16.81-11.18-30.07-25.18-39.2-41.95-58.66-107.79,75.86-289.97,300.42-406.85,121-62.98,243.42-94.09,339.81-92.58l-47.77,21.15c-12.82,5.66-21.32,17.76-22.46,31.33ZM806.88,229.55l-35.31-15.63c-4.27,13.62-8.09,27.2-11.97,39.74l-76.17,246.2c-.98,3.18-5.69,2.38-5.57-.94l8.01-229.1h0c-59.53-.02-114.97,45.61-127.96,105.31l-30.81,141.66c-.66,3.04-5.02,2.97-5.59-.08l-13.73-73.49h0c-60.32-.02-110.5,59.24-99.09,117.04l24.07,122.02c10.34,52.43,54.41,87.96,109.13,87.97l40.76-95.43c1.09-2.55,4.82-2.2,5.41.52l20.55,94.93c57.09.02,111.47-40.05,130.61-96.24l118.68-348.42-39-84.25c-2.44-5.27-6.71-9.47-12.02-11.82ZM879.66,4.74l-46.5,100.46c-.83,1.79-2.29,3.22-4.11,4.02l-102.73,45.48c-6.46,2.86-6.46,11.84,0,14.7l102.73,45.48c1.83.81,3.29,2.24,4.11,4.02l46.5,100.46c2.93,6.32,12.11,6.32,15.03,0l46.5-100.46c.83-1.79,2.29-3.22,4.11-4.02l102.73-45.48c6.46-2.86,6.46-11.84,0-14.7l-102.73-45.48c-1.83-.81-3.29-2.24-4.11-4.02l-46.5-100.46c-2.93-6.32-12.11-6.32-15.03,0ZM417.04,183.69l.06-.03c3.94-2.05,7.42-4.89,10.21-8.36l8.98-11.15c-56.28-47.43-132.95-47.33-171.25.23l-37.98,47.15-55.8-47.03c-56.28-47.43-132.95-47.33-171.25.23l106.43,89.7-36.25,11.79c-60.3,19.61-83.56,87.58-51.96,151.83l146.69-47.7c8.26-2.68,15.57-7.6,21.39-14.04,57.37-63.44,137.28-123.97,230.75-172.62ZM953.87,242.19c.59,63-42.17,138.9-115.73,210.81l-22.99,67.49c111.94-95.24,169.18-202.86,138.72-278.31ZM166.15,652.34c16.88,23.91,43.56,40.96,77.4,51.32-5.61-8.12-10.64-16.63-14.97-25.47-24.02-5.69-45.12-14.26-62.43-25.84ZM429.74,284.23c-93.57,53.65-170.75,120.72-216.41,186.48-4,5.76-5.62,12.83-4.31,19.72l26,137.4c14.86,78.54,90.3,142.12,168.5,142.02l-74.66-394.53c-.92-4.85,3.6-8.96,8.34-7.6l173.01,49.69c5.72-50.52-23.31-103.24-68.84-132.94-3.48-2.27-8.02-2.29-11.62-.22Z"/>
  </g>
</svg>